<svg id="Layer_1" data-name="Layer 1" xmlns="http://www.w3.org/2000/svg" xmlns:xlink="http://www.w3.org/1999/xlink" viewBox="0 0 464 464"><defs><style>.cls-1{fill:url(#linear-gradient);}.cls-2{fill:#fff;}</style><linearGradient id="linear-gradient" x1="232" y1="483.65" x2="232" y2="-31.85" gradientUnits="userSpaceOnUse"><stop offset="0" stop-color="#2a2a2a"/><stop offset="1" stop-color="#435f7a"/></linearGradient></defs><title>logo1</title><rect class="cls-1" width="464" height="464" rx="120.66" ry="120.66"/><path class="cls-2" d="M368.16,291.74a93.41,93.41,0,0,0-.7-94.14,111.28,111.28,0,0,0-35.58-36.87,125.57,125.57,0,0,1,4,31.48,122,122,0,0,1-11.69,52.61,133.2,133.2,0,0,1-33.49,43.91,145.77,145.77,0,0,1-46,26.72,157.55,157.55,0,0,1-53.89,9.32q-5.24,0-15.35-.82,35.06,27.33,82.32,27.34a148.42,148.42,0,0,0,30.7-3.32,137.27,137.27,0,0,0,48.48,26.52,125.77,125.77,0,0,0,15,3.31,4.71,4.71,0,0,0,3.84-1.45A8.05,8.05,0,0,0,358,371.8c-.06-.83,0-1.28.17-1.35s.15-.52-.08-1.34l-.35-1.25-.44-1a9.13,9.13,0,0,0-.61-1.14,8.84,8.84,0,0,0-.69-1c-.18-.21-.44-.56-.79-1s-.58-.79-.7-.93c-.58-.83-1.91-2.55-4-5.18s-3.6-4.65-4.53-6.1-2.24-3.45-3.92-6a53.71,53.71,0,0,1-4.36-8q-1.85-4.15-3.58-9.12A111.24,111.24,0,0,0,368.16,291.74Z" transform="translate(0.09 0)"/><path class="cls-2" d="M294.44,139Q278,114.54,249.7,100.36a135.73,135.73,0,0,0-61.65-14.19,135.81,135.81,0,0,0-61.66,14.19Q98.06,114.55,81.66,139a93.61,93.61,0,0,0-16.4,53.23,92.27,92.27,0,0,0,12.39,46.4,110.74,110.74,0,0,0,34,36.66c-1.16,3.32-2.36,6.35-3.58,9.12a53.71,53.71,0,0,1-4.36,8q-2.52,3.84-3.92,6c-.93,1.44-2.44,3.49-4.54,6.11s-3.43,4.35-4,5.17c0-.14-.23.18-.7.94s-.72,1.1-.78,1-.29.27-.7,1l-.61,1.14-.44,1a5.12,5.12,0,0,0-.35,1.24,9.38,9.38,0,0,0-.08,1.34,4.9,4.9,0,0,0,.17,1.35,7.25,7.25,0,0,0,2,4.35,5,5,0,0,0,3.57,1.65h.53a125.12,125.12,0,0,0,15-3.31,137.32,137.32,0,0,0,48.49-26.52,148.42,148.42,0,0,0,30.7,3.32,135.6,135.6,0,0,0,61.65-14.18q28.35-14.19,44.74-38.63a94.63,94.63,0,0,0,0-106.46Zm-166.1,77.45a18.53,18.53,0,1,1,18.53-18.53A18.53,18.53,0,0,1,128.34,216.44Zm59.71,0a18.53,18.53,0,1,1,18.53-18.53A18.53,18.53,0,0,1,188.05,216.44Zm59.7,0a18.53,18.53,0,1,1,18.53-18.53A18.53,18.53,0,0,1,247.75,216.44Z" transform="translate(0.09 0)"/></svg>